<svg width="64" height="64" viewBox="0 0 64 64" fill="none" xmlns="http://www.w3.org/2000/svg">
<path d="M52.2678 43.2302V49.6302C52.2652 50.7613 51.8147 51.8453 51.0149 52.6451C50.2151 53.4448 49.1311 53.8953 48 53.898H16C14.869 53.8953 13.785 53.4448 12.9852 52.6451C12.1854 51.8453 11.7349 50.7613 11.7322 49.6302V43.2302C11.7402 40.4034 12.8667 37.6947 14.8656 35.6958C16.8645 33.6969 19.5732 32.5704 22.4 32.5624H41.6C44.4268 32.5704 47.1356 33.6969 49.1345 35.6958C51.1333 37.6947 52.2598 40.4034 52.2678 43.2302ZM21.0998 18.4589C21.1005 16.3031 21.7403 14.196 22.9385 12.4039C24.1366 10.6119 25.8392 9.21527 27.831 8.39078C29.8228 7.56628 32.0144 7.3509 34.1286 7.77187C36.2428 8.19284 38.1847 9.23125 39.7088 10.7558C41.2329 12.2804 42.2707 14.2226 42.691 16.3369C43.1114 18.4513 42.8953 20.6428 42.0702 22.6343C41.2451 24.6259 39.848 26.3281 38.0555 27.5257C36.2631 28.7232 34.1557 29.3624 32 29.3624C29.1091 29.3624 26.3366 28.214 24.2924 26.1698C22.2482 24.1257 21.0998 21.3498 21.0998 18.4589Z" fill="#999999"/>
</svg>
