<svg width="64" height="64" viewBox="0 0 64 64" fill="none" xmlns="http://www.w3.org/2000/svg">
<g clip-path="url(#clip0_256_13)">
<path d="M1.33331 9.06665C6.45331 9.06665 6.45331 11.6 11.5466 11.6C16.64 11.6 16.6666 9.06665 21.76 9.06665C26.8533 9.06665 26.88 11.6 31.9733 11.6C37.0666 11.6 37.0933 9.06665 42.1866 9.06665C47.28 9.06665 47.3066 11.6 52.4266 11.6C57.5466 11.6 57.5466 9.06665 62.6666 9.06665" stroke="#999999" stroke-width="3" stroke-miterlimit="10" stroke-linecap="round"/>
<path d="M1.33331 24.3999C6.45331 24.3999 6.45331 26.9332 11.5466 26.9332C16.64 26.9332 16.6666 24.3999 21.76 24.3999C26.8533 24.3999 26.88 26.9332 31.9733 26.9332C37.0666 26.9332 37.0933 24.3999 42.1866 24.3999C47.28 24.3999 47.3066 26.9332 52.4266 26.9332C57.5466 26.9332 57.5466 24.3999 62.6666 24.3999" stroke="#999999" stroke-width="3" stroke-miterlimit="10" stroke-linecap="round"/>
<path d="M1.33331 39.7334C6.45331 39.7334 6.45331 42.2667 11.5466 42.2667C16.64 42.2667 16.6666 39.7334 21.76 39.7334C26.8533 39.7334 26.88 42.2667 31.9733 42.2667C37.0666 42.2667 37.0933 39.7334 42.1866 39.7334C47.28 39.7334 47.3066 42.2667 52.4266 42.2667C57.5466 42.2667 57.5466 39.7334 62.6666 39.7334" stroke="#999999" stroke-width="3" stroke-miterlimit="10" stroke-linecap="round"/>
<path d="M1.33331 55.0667C6.45331 55.0667 6.45331 57.7333 11.5466 57.7333C16.64 57.7333 16.6666 55.0667 21.76 55.0667C26.8533 55.0667 26.88 57.7333 31.9733 57.7333C37.0666 57.7333 37.0933 55.0667 42.1866 55.0667C47.28 55.0667 47.3066 57.7333 52.4266 57.7333C57.5466 57.7333 57.5466 55.0667 62.6666 55.0667" stroke="#999999" stroke-width="3" stroke-miterlimit="10" stroke-linecap="round"/>
</g>
<defs>
<clipPath id="clip0_256_13">
<rect width="64" height="64" fill="white"/>
</clipPath>
</defs>
</svg>
