<svg width="64" height="64" viewBox="0 0 64 64" fill="none" xmlns="http://www.w3.org/2000/svg">
<path d="M34.6667 34.6667L42.6667 21.3333M21.3333 21.3333H21.36M32 16H32.0267M48 32H48.0267M16 32H16.0267M37.3333 40C37.3333 42.9456 34.9456 45.3333 32 45.3333C29.0544 45.3333 26.6667 42.9456 26.6667 40C26.6667 37.0544 29.0544 34.6667 32 34.6667C34.9456 34.6667 37.3333 37.0544 37.3333 40ZM56 32C56 45.2549 45.2549 56 32 56C18.7452 56 8 45.2549 8 32C8 18.7452 18.7452 8 32 8C45.2549 8 56 18.7452 56 32Z" stroke="#999999" stroke-width="3" stroke-linecap="round" stroke-linejoin="round"/>
</svg>
