<svg width="64" height="64" viewBox="0 0 64 64" fill="none" xmlns="http://www.w3.org/2000/svg">
<path d="M42.0371 18.6667C43.5019 17.0301 45.6307 16.0001 48 16.0001C52.4184 16.0001 56 19.5818 56 24.0001C56 28.4185 52.4184 32.0001 48 32.0001H8M22.6914 12.4445C23.6679 11.3534 25.0871 10.6667 26.6667 10.6667C29.6123 10.6667 32 13.0546 32 16.0001C32 18.9456 29.6123 21.3334 26.6667 21.3334H8M30.6915 51.5555C31.668 52.6467 33.0872 53.3334 34.6667 53.3334C37.6123 53.3334 40 50.9457 40 48.0001C40 45.0545 37.6123 42.6667 34.6667 42.6667H8" stroke="#999999" stroke-width="3" stroke-linecap="round" stroke-linejoin="round"/>
</svg>
