<svg width="64" height="64" viewBox="0 0 64 64" fill="none" xmlns="http://www.w3.org/2000/svg">
<path d="M40 31.9999C40 36.4183 36.4184 39.9999 32 39.9999C27.5819 39.9999 24.0001 36.4183 24.0001 31.9999C24.0001 27.5818 27.5819 24 32 24C36.4184 24 40 27.5818 40 31.9999Z" stroke="#999999" stroke-width="3" stroke-linecap="round" stroke-linejoin="round"/>
<path d="M20.3823 13.8373L20.1787 16.2811C20.0722 17.5594 20.0189 18.1986 19.7433 18.6978C19.5003 19.1379 19.1379 19.5003 18.6978 19.7433C18.1986 20.0189 17.5594 20.0722 16.2811 20.1787L13.8373 20.3823C11.1002 20.6105 9.73173 20.7245 9.05712 21.3497C8.47005 21.8938 8.15842 22.6728 8.20832 23.4717C8.26562 24.3897 9.17797 25.4161 11.0027 27.4688L12.5107 29.1656C13.4023 30.1685 13.8481 30.6699 14.0173 31.236C14.1665 31.7344 14.1665 32.2659 14.0173 32.7643C13.8481 33.3301 13.4023 33.8317 12.5107 34.8347L11.0027 36.5312C9.17797 38.584 8.26562 39.6104 8.20832 40.5285C8.15842 41.3275 8.47005 42.1064 9.05712 42.6504C9.73173 43.2757 11.1002 43.3899 13.8373 43.6179L16.2811 43.8216C17.5594 43.928 18.1986 43.9813 18.6978 44.2571C19.1379 44.5 19.5003 44.8624 19.7433 45.3024C20.0189 45.8016 20.0722 46.4408 20.1787 47.7192L20.3823 50.1629C20.6105 52.9 20.7245 54.2685 21.3497 54.9432C21.8938 55.5301 22.6728 55.8419 23.4717 55.792C24.3897 55.7347 25.4161 54.8221 27.4688 52.9976L29.1656 51.4893C30.1685 50.5979 30.6699 50.1523 31.236 49.9829C31.7344 49.8336 32.2659 49.8336 32.7643 49.9829C33.3301 50.1523 33.8317 50.5979 34.8347 51.4893L36.5312 52.9976C38.584 54.8221 39.6104 55.7347 40.5285 55.792C41.3275 55.8419 42.1064 55.5301 42.6504 54.9432C43.2757 54.2685 43.3899 52.9 43.6179 50.1629L43.8216 47.7192C43.928 46.4408 43.9813 45.8016 44.2571 45.3024C44.5 44.8624 44.8624 44.5 45.3024 44.2571C45.8016 43.9813 46.4408 43.928 47.7192 43.8216L50.1629 43.6179C52.9 43.3899 54.2685 43.2757 54.9432 42.6504C55.5301 42.1064 55.8419 41.3275 55.792 40.5285C55.7347 39.6104 54.8221 38.584 52.9976 36.5312L51.4893 34.8347C50.5979 33.8317 50.1523 33.3301 49.9829 32.7643C49.8336 32.2659 49.8336 31.7344 49.9829 31.236C50.1523 30.6699 50.5979 30.1685 51.4893 29.1656L52.9976 27.4688C54.8221 25.4161 55.7347 24.3897 55.792 23.4717C55.8419 22.6728 55.5301 21.8938 54.9432 21.3497C54.2685 20.7245 52.9 20.6105 50.1629 20.3823L47.7192 20.1787C46.4408 20.0722 45.8016 20.0189 45.3024 19.7433C44.8624 19.5003 44.5 19.1379 44.2571 18.6978C43.9813 18.1986 43.928 17.5594 43.8216 16.2811L43.6179 13.8373C43.3899 11.1002 43.2757 9.73173 42.6504 9.05712C42.1064 8.47005 41.3275 8.15842 40.5285 8.20832C39.6104 8.26562 38.584 9.17797 36.5312 11.0027L34.8347 12.5107C33.8317 13.4023 33.3301 13.8481 32.7643 14.0173C32.2659 14.1665 31.7344 14.1665 31.236 14.0173C30.6699 13.8481 30.1685 13.4023 29.1656 12.5107L27.4688 11.0027C25.4161 9.17797 24.3897 8.26562 23.4717 8.20832C22.6728 8.15842 21.8938 8.47005 21.3497 9.05712C20.7245 9.73173 20.6105 11.1002 20.3823 13.8373Z" stroke="#999999" stroke-width="3" stroke-linecap="round" stroke-linejoin="round"/>
</svg>
